<?xml version="1.0" encoding="UTF-8" standalone="no"?>
<!DOCTYPE svg PUBLIC "-//W3C//DTD SVG 1.1//EN" "http://www.w3.org/Graphics/SVG/1.1/DTD/svg11.dtd">
<svg width="100%" height="100%" viewBox="0 0 256 256" version="1.1" xmlns="http://www.w3.org/2000/svg" xmlns:xlink="http://www.w3.org/1999/xlink" xml:space="preserve" xmlns:serif="http://www.serif.com/" style="fill-rule:evenodd;clip-rule:evenodd;stroke-linejoin:round;stroke-miterlimit:2;">
    <g transform="matrix(0.72,0,0,0.72,128,128)">
        <g transform="matrix(1.84226,0,0,1.90137,-220.15,-200.594)">
            <path d="M216,58.75C216,32.948 194.38,12 167.75,12L71.25,12C44.62,12 23,32.948 23,58.75L23,152.25C23,178.052 44.62,199 71.25,199L167.75,199C194.38,199 216,178.052 216,152.25L216,58.75Z" style="fill:white;"/>
        </g>
        <g transform="matrix(3.89,0,0,3.89,-175.05,-175.05)">
            <path d="M45,70.968C28.987,70.968 15.958,57.94 15.958,41.926C15.958,40.214 17.346,38.827 19.057,38.827C20.769,38.827 22.156,40.215 22.156,41.926C22.157,54.522 32.404,64.77 45,64.77C57.595,64.77 67.843,54.522 67.843,41.927C67.843,40.215 69.23,38.828 70.942,38.828C72.654,38.828 74.041,40.216 74.041,41.927C74.042,57.94 61.013,70.968 45,70.968Z" style="fill-rule:nonzero;"/>
            <path d="M45,60.738C34.715,60.738 26.3,52.323 26.3,42.038L26.3,18.7C26.3,8.415 34.715,0 45,0C55.285,0 63.7,8.415 63.7,18.7L63.7,42.037C63.7,52.322 55.285,60.738 45,60.738Z" style="fill-rule:nonzero;"/>
            <path d="M45,89.213C43.288,89.213 41.901,87.826 41.901,86.114L41.901,68.655C41.901,66.943 43.289,65.556 45,65.556C46.712,65.556 48.099,66.943 48.099,68.655L48.099,86.114C48.099,87.826 46.712,89.213 45,89.213Z" style="fill-rule:nonzero;"/>
            <path d="M55.451,90L34.549,90C32.837,90 31.45,88.613 31.45,86.901C31.45,85.189 32.838,83.802 34.549,83.802L55.45,83.802C57.162,83.802 58.549,85.189 58.549,86.901C58.549,88.613 57.163,90 55.451,90Z" style="fill-rule:nonzero;"/>
        </g>
    </g>
</svg>
